<svg width="805" height="803" viewBox="0 0 805 803" fill="none" xmlns="http://www.w3.org/2000/svg">
<g id="undraw_speech_to_text_9uir 1" clip-path="url(#clip0)">
<g id="man">
<g id="arm 1">
<path id="Vector" d="M342.705 375.347C342.705 375.347 283.968 420.033 314.524 422.368C345.08 424.703 349.291 385.685 349.291 385.685L342.705 375.347Z" fill="#FFB9B9"/>
<path id="Vector_2" d="M381.962 231.642L379.867 225.024C379.867 225.024 382.767 274.731 383.239 279.275C383.712 283.819 373.081 331.771 372.928 339.136C372.713 343.983 371.655 348.756 369.801 353.24L337.063 374.096C337.063 374.096 344.441 400.886 355.877 396.023C367.313 391.16 404.442 377.196 411.334 372.805C418.226 368.414 436.055 301.342 436.055 301.342L381.962 231.642Z" fill="#575A89"/>
</g>
<g id="head">
<path id="Vector_3" d="M407.966 156.481C435.045 156.481 456.998 134.529 456.998 107.449C456.998 80.3696 435.045 58.4174 407.966 58.4174C380.886 58.4174 358.934 80.3696 358.934 107.449C358.934 134.529 380.886 156.481 407.966 156.481Z" fill="#FFB9B9"/>
<path id="Vector_4" d="M394.687 141.158C394.687 141.158 419.202 188.147 415.116 196.319C411.03 204.491 468.234 157.502 468.234 157.502C468.234 157.502 447.804 124.815 447.804 114.6C447.804 104.385 394.687 141.158 394.687 141.158Z" fill="#FFB9B9"/>
<path id="Vector_5" d="M360.091 52.9275C371.479 41.8107 383.448 30.3359 398.608 25.494C418.843 19.0315 441.401 25.8128 458.822 37.9677C462.58 40.5899 466.26 43.5588 468.518 47.5462C470.59 51.2037 471.314 55.4485 471.971 59.6003C474.284 74.2211 476.179 89.0372 475.048 103.797C473.917 118.556 469.566 133.391 460.476 145.074C452.418 136.464 446.234 126.276 442.315 115.154C441.28 112.21 440.351 109.109 438.261 106.793C436.171 104.476 432.492 103.23 429.868 104.919C426.223 107.265 426.681 113.53 422.833 115.525C421.515 116.123 420.04 116.278 418.627 115.966C408.594 114.237 405.099 101.945 398.57 94.1337C388.945 82.6204 375.47 83.349 362.318 80.0402C347.055 76.2005 350.834 61.964 360.091 52.9275Z" fill="#2F2E41"/>
</g>
<g id="leg1">
<path id="Vector_6" d="M356.291 439.22C356.291 439.22 303.241 509.456 318.081 565.037C332.92 620.619 338.517 697.256 338.826 703.703C339.135 710.15 415.756 717.942 418.912 703.6C422.069 689.257 400.136 592.629 393.432 586.448C386.728 580.267 381.18 571.455 389.462 570.464C397.744 569.473 429.227 450.999 444.017 438.756C458.808 426.513 398.774 370.226 398.774 370.226L356.291 439.22Z" fill="#2F2E41"/>
<path id="Vector_7" d="M356.913 710.823C356.913 710.823 368.03 756.888 359.515 768.91C351 780.932 413.787 767.772 413.787 767.772L395.637 709.088L356.913 710.823Z" fill="#FFB9B9"/>
<path id="Vector_8" d="M376.473 756.785C376.473 756.785 354.625 745.476 356.09 749.291C357.554 753.105 322.472 792.832 315.575 797.668C308.678 802.504 298.698 810.711 316.153 810.576C333.608 810.441 431.612 775.009 430.148 771.194C428.683 767.38 418.587 729.677 412.422 736.42C406.257 743.163 381.309 763.682 376.473 756.785Z" fill="#2F2E41"/>
</g>
<g id="leg 2">
<path id="Vector_9" d="M458.228 762.276C458.228 762.276 437.337 751.972 434.162 757.599C430.988 763.225 424.304 786.901 404.696 791.414C385.087 795.928 376.732 806.791 400.408 813.474C424.083 820.157 499.229 786.896 500.789 778.874C502.348 770.852 499.004 745.228 494.603 746.454C490.202 747.679 476.667 763.779 458.228 762.276Z" fill="#2F2E41"/>
<path id="Vector_10" d="M432.323 727.895C432.323 727.895 440.011 741.877 440.457 750.289C440.903 758.7 470.205 768.558 470.205 768.558L496.943 748.781C496.943 748.781 473.545 719.258 465.523 717.699C457.501 716.14 432.323 727.895 432.323 727.895Z" fill="#FFB9B9"/>
<path id="Vector_11" d="M422.377 455.175C422.377 455.175 385.727 526.3 400.566 581.881C415.405 637.463 404.603 713.211 404.912 719.658C405.221 726.105 481.842 733.897 484.998 719.554C488.155 705.212 471.564 584.062 464.86 577.881C458.156 571.701 456.578 547.872 464.86 546.881C473.142 545.891 495.313 466.954 510.103 454.711C524.894 442.468 464.86 386.181 464.86 386.181L422.377 455.175Z" fill="#2F2E41"/>
</g>
<path id="body" d="M483.817 173.539C483.817 173.539 480.966 151.894 465.011 160.801C449.057 169.708 416.285 193.593 416.285 193.593C416.285 193.593 398.981 195.888 390.711 204.462C382.442 213.037 367.276 278.728 374.164 303.382C381.053 328.036 372.321 365.858 374.004 376.73C375.688 387.603 369.409 396.637 383.343 399.854C397.277 403.071 379.057 382.09 421.165 408.586C463.273 435.081 510.433 466.936 517.632 453.921C524.83 440.906 516.715 430.645 524.066 426.052C531.416 421.459 525.904 418.089 525.14 403.236C524.375 388.382 520.854 385.473 522.999 367.097C525.145 348.722 531.272 331.266 529.129 322.384C526.986 313.503 529.743 301.559 534.339 281.653C538.935 261.746 536.182 219.176 517.043 202.177C497.903 185.178 483.817 173.539 483.817 173.539Z" fill="#575A89"/>
<g id="arm2">
<path id="Vector_12" d="M408.35 406.762C408.35 406.762 346.011 438.723 352.245 453.9C358.478 469.076 415.113 437.326 415.113 437.326L434.85 419.554L408.35 406.762Z" fill="#FFB9B9"/>
<path id="Vector_13" d="M424.022 212.124C424.022 212.124 416.286 249.33 432.085 279.09C447.885 308.85 466.57 338.761 466.57 338.761L404.933 410.753C404.933 410.753 420.732 440.513 431.209 433.829C441.685 427.145 514.858 369.508 520.017 353.866C525.177 338.224 492.513 230.179 484.159 223.955C475.806 217.731 448.163 193.136 424.022 212.124Z" fill="#575A89"/>
</g>
</g>
</g>
<defs>
<clipPath id="clip0">
<rect width="804.887" height="802.861" fill="white"/>
</clipPath>
</defs>
</svg>
